<svg id="Calque_1" data-name="Calque 1" xmlns="http://www.w3.org/2000/svg" viewBox="0 0 177.76 139.01"><defs><style>.cls-1,.cls-2{fill:none;stroke:#050505;stroke-linecap:round;stroke-width:5px;}.cls-1{stroke-miterlimit:10;}.cls-2{stroke-linejoin:round;}.cls-3{fill:#050505;}</style></defs><title>desert</title><path class="cls-1" d="M255.5,390.39s-33.57-1.5-31.28,24.5,22.28,46.5,31.28,39.5,8,0,14.5-1,26.5-9,21.5-38.5S275.5,389.89,255.5,390.39Z" transform="translate(-207.35 -351.43)"/><path class="cls-1" d="M346.5,402.89s-43.31-3.5-45.66,30S329,484.39,329,484.39s10.5,8,22,0,42-40.15,28-61.57S346.5,402.89,346.5,402.89Z" transform="translate(-207.35 -351.43)"/><polyline class="cls-2" points="148.07 52.71 162.15 33.96 148.07 40.96 139.65 23.96 134.31 38.33 120.65 23.96 127.15 51.35"/><path class="cls-1" d="M264.72,359.39s-13.22,22-9.22,31" transform="translate(-207.35 -351.43)"/><path class="cls-1" d="M256.37,377.51S255,344.89,212,356.39C224.5,369.89,240.75,395.63,256.37,377.51Z" transform="translate(-207.35 -351.43)"/><circle class="cls-3" cx="109.53" cy="85.33" r="2.88"/><circle class="cls-3" cx="117.42" cy="70.68" r="3.23"/><circle class="cls-3" cx="134.81" cy="70.07" r="2.61"/></svg>